<?xml version="1.0" standalone="no"?>
<!DOCTYPE svg PUBLIC "-//W3C//DTD SVG 20010904//EN"
 "http://www.w3.org/TR/2001/REC-SVG-20010904/DTD/svg10.dtd">
<svg version="1.0" xmlns="http://www.w3.org/2000/svg"
 width="512.000000pt" height="512.000000pt" viewBox="0 0 512.000000 512.000000"
 preserveAspectRatio="xMidYMid meet">

<g transform="translate(0.000000,512.000000) scale(0.100000,-0.100000)"
fill="#000000" stroke="none">
<path d="M1360 4947 c-49 -16 -133 -102 -148 -153 -9 -31 -12 -305 -12 -1133
l0 -1092 25 -24 c32 -33 78 -33 110 0 l25 24 0 1091 0 1091 25 24 24 25 1151
0 1151 0 24 -25 25 -24 0 -1275 0 -1275 -57 -6 c-32 -3 -68 -8 -80 -11 l-23
-4 0 166 c0 195 -8 228 -67 294 -68 76 -88 80 -411 80 -186 0 -288 -4 -316
-12 -55 -16 -138 -99 -154 -154 -19 -64 -15 -102 13 -129 49 -50 135 -15 135
55 0 19 9 40 25 55 l24 25 271 0 271 0 24 -25 c24 -24 25 -28 25 -181 0 -145
-1 -156 -17 -149 -137 55 -269 83 -340 72 -116 -19 -109 -157 8 -157 79 0 155
-18 274 -64 130 -51 155 -54 285 -30 104 18 194 12 304 -23 102 -32 126 -56
126 -123 0 -54 -19 -112 -48 -143 -29 -32 -72 -49 -151 -59 -52 -6 -102 -21
-161 -48 -47 -22 -114 -46 -150 -54 -75 -18 -213 -21 -291 -6 -100 20 -246 14
-395 -16 l-138 -28 -65 25 c-112 41 -178 34 -345 -34 -77 -31 -154 -59 -170
-62 -21 -4 -99 14 -241 55 -115 33 -233 63 -261 66 -68 8 -141 -9 -245 -56
-67 -31 -98 -40 -140 -40 -67 0 -148 37 -184 84 -48 63 -55 103 -55 321 0 112
3 211 6 220 4 10 21 23 37 30 26 11 38 10 71 -2 53 -20 142 -20 187 0 20 8 54
31 75 50 125 111 278 115 416 8 127 -97 169 -106 295 -65 74 25 104 29 193 29
118 0 164 -13 265 -75 100 -62 172 -74 248 -39 50 23 61 86 21 126 -23 23 -31
25 -75 19 -45 -6 -54 -4 -116 34 -38 22 -94 50 -125 62 l-58 21 0 105 c0 129
-12 171 -67 232 -68 76 -88 80 -411 80 -182 0 -288 -4 -314 -12 -50 -15 -120
-76 -144 -125 -9 -21 -20 -66 -23 -101 l-6 -63 -58 -24 c-32 -13 -88 -46 -125
-74 -36 -28 -71 -51 -78 -51 -6 0 -29 7 -50 16 -54 23 -142 21 -191 -5 -51
-26 -106 -89 -121 -140 -18 -60 -16 -452 3 -525 30 -114 114 -214 223 -264 50
-23 70 -26 162 -26 103 -1 106 0 195 42 134 64 144 64 395 -9 286 -83 294 -83
502 -1 86 34 165 62 175 62 10 0 50 -11 88 -25 88 -31 110 -31 270 1 140 27
270 32 364 14 29 -5 97 -10 150 -10 140 0 246 26 391 94 30 14 67 26 83 26
l27 0 0 -205 c0 -204 0 -205 -23 -210 -12 -3 -85 -15 -163 -28 l-141 -23 -16
45 c-60 169 -293 237 -427 124 l-30 -25 -31 26 c-17 14 -56 33 -86 42 -135 39
-269 -20 -330 -144 -24 -48 -28 -70 -29 -142 l-1 -84 -609 -103 c-335 -56
-610 -102 -611 -102 -1 -1 -11 -11 -23 -23 -45 -49 -9 -128 58 -128 18 0 318
48 667 106 l634 106 166 -136 c127 -103 174 -136 195 -136 22 0 73 36 216 152
166 136 229 199 246 249 3 8 284 59 323 59 13 0 15 -31 15 -206 0 -133 -4
-221 -12 -248 -16 -55 -99 -138 -154 -154 -60 -17 -2328 -17 -2388 0 -55 16
-138 99 -154 154 -8 29 -12 138 -12 353 l0 312 -25 24 c-32 33 -78 33 -110 0
l-25 -24 0 -318 c0 -175 5 -337 10 -361 28 -119 103 -213 218 -269 l76 -38
1215 0 1216 0 67 32 c93 44 151 100 196 191 l37 76 3 553 3 553 49 46 c27 26
62 72 77 103 25 50 28 67 28 156 0 91 -2 104 -27 146 -35 59 -95 99 -203 134
l-85 28 0 1285 c0 964 -3 1295 -12 1324 -6 22 -31 62 -55 88 -77 86 17 80
-1297 79 -816 -1 -1171 -4 -1196 -12z m935 -2412 c23 -22 25 -32 25 -118 l0
-94 -72 -6 c-40 -4 -106 -18 -147 -32 -41 -14 -83 -23 -92 -20 -10 3 -44 26
-75 50 -69 54 -131 85 -199 100 -49 11 -50 12 -53 53 -3 34 2 47 22 67 l25 25
271 0 271 0 24 -25z m685 -1430 c34 -17 60 -62 60 -100 0 -36 42 -75 80 -75
38 0 80 39 80 75 0 38 26 83 60 100 117 61 233 -92 149 -198 -22 -29 -276
-237 -289 -237 -17 0 -283 224 -301 254 -26 42 -24 95 4 137 39 58 98 74 157
44z"/>
<path d="M1680 4627 c-49 -16 -133 -102 -148 -153 -16 -56 -16 -412 0 -468 16
-55 99 -138 154 -154 28 -8 130 -12 316 -12 323 0 343 4 411 80 24 26 49 66
55 88 16 53 16 411 0 464 -6 22 -31 62 -55 88 -69 77 -88 80 -417 79 -174 -1
-294 -5 -316 -12z m615 -172 c25 -24 25 -26 25 -215 0 -189 0 -191 -25 -215
l-24 -25 -271 0 -271 0 -24 25 c-25 24 -25 26 -25 215 0 189 0 191 25 215 l24
25 271 0 271 0 24 -25z"/>
<path d="M2800 4627 c-49 -16 -133 -102 -148 -153 -8 -26 -12 -112 -12 -234 0
-122 4 -208 12 -234 16 -55 99 -138 154 -154 27 -8 120 -12 273 -12 l232 0 24
25 c16 15 25 36 25 55 0 19 -9 40 -25 55 l-24 25 -231 0 -231 0 -24 25 c-25
24 -25 26 -25 215 0 189 0 191 25 215 l24 25 271 0 271 0 24 -25 c25 -24 25
-26 25 -215 0 -189 0 -191 25 -215 32 -33 78 -33 110 0 25 24 25 26 25 216 0
119 -4 207 -12 231 -6 22 -31 62 -55 88 -69 77 -88 80 -417 79 -174 -1 -294
-5 -316 -12z"/>
<path d="M1680 3667 c-49 -16 -133 -102 -148 -153 -16 -56 -16 -412 0 -468 16
-55 99 -138 154 -154 28 -8 130 -12 316 -12 323 0 343 4 411 80 24 26 49 66
55 88 16 53 16 411 0 464 -6 22 -31 62 -55 88 -69 77 -88 80 -417 79 -174 -1
-294 -5 -316 -12z m615 -172 c25 -24 25 -26 25 -215 0 -189 0 -191 -25 -215
l-24 -25 -271 0 -271 0 -24 25 c-25 24 -25 26 -25 215 0 189 0 191 25 215 l24
25 271 0 271 0 24 -25z"/>
<path d="M2800 3667 c-49 -16 -133 -102 -148 -153 -8 -26 -12 -112 -12 -234 0
-122 4 -208 12 -234 16 -55 99 -138 154 -154 28 -8 130 -12 316 -12 323 0 343
4 411 80 24 26 49 66 55 88 16 53 16 411 0 464 -6 22 -31 62 -55 88 -69 77
-88 80 -417 79 -174 -1 -294 -5 -316 -12z m615 -172 c25 -24 25 -26 25 -215 0
-189 0 -191 -25 -215 l-24 -25 -271 0 -271 0 -24 25 c-25 24 -25 26 -25 215 0
189 0 191 25 215 l24 25 271 0 271 0 24 -25z"/>
</g>
</svg>
