<?xml version="1.0" standalone="no"?>
<!DOCTYPE svg PUBLIC "-//W3C//DTD SVG 20010904//EN"
 "http://www.w3.org/TR/2001/REC-SVG-20010904/DTD/svg10.dtd">
<svg version="1.0" xmlns="http://www.w3.org/2000/svg"
 width="512.000000pt" height="512.000000pt" viewBox="0 0 512.000000 512.000000"
 preserveAspectRatio="xMidYMid meet">

<g transform="translate(0.000000,512.000000) scale(0.100000,-0.100000)"
fill="#000000" stroke="none">
<path d="M3133 5104 c-52 -19 -128 -98 -142 -150 -43 -155 36 -256 255 -328
l50 -16 -7 -63 c-32 -265 -149 -494 -324 -636 -35 -29 -67 -61 -70 -72 -16
-49 41 -108 89 -93 38 12 154 113 209 182 125 156 202 338 237 555 7 42 15 77
19 77 3 0 48 -14 98 -31 l93 -31 0 -204 0 -204 -63 0 c-53 0 -67 -4 -85 -23
-22 -23 -22 -25 -22 -468 l0 -446 23 -21 c31 -29 72 -28 102 3 24 24 25 28 25
180 l0 155 339 0 339 0 4 -327 c4 -304 6 -334 27 -403 34 -112 92 -216 176
-310 150 -170 186 -216 210 -267 40 -83 55 -166 55 -305 l0 -128 -154 0 -153
0 -46 58 c-134 172 -361 260 -562 219 -44 -9 -113 -33 -153 -53 -76 -39 -182
-128 -223 -188 l-24 -36 -159 0 -159 0 7 146 c8 157 27 243 73 321 14 24 72
96 130 160 58 65 119 137 135 161 75 109 140 305 117 355 -11 24 -47 47 -73
47 -27 0 -64 -40 -70 -77 -24 -133 -89 -247 -224 -392 l-78 -83 -55 41 c-30
22 -84 57 -121 77 l-68 35 0 232 c-1 191 -3 236 -16 252 -13 18 -30 21 -137
25 l-122 5 -3 148 -3 147 94 0 c85 0 96 2 115 23 29 31 28 72 -3 103 l-25 25
-283 -3 c-317 -4 -340 -8 -441 -85 -60 -45 -133 -133 -142 -170 -10 -37 7 -76
40 -92 39 -18 58 -7 120 69 34 43 70 75 106 95 49 26 66 30 163 33 l107 4 0
-151 0 -151 -115 0 c-165 0 -155 18 -155 -274 l0 -234 -76 -41 c-41 -23 -102
-62 -135 -87 l-60 -46 -52 22 c-28 12 -77 25 -109 28 l-58 5 0 366 c0 413 -5
454 -67 580 -71 143 -222 265 -379 306 -76 20 -220 19 -298 -1 -151 -39 -297
-154 -368 -289 -72 -138 -71 -137 -76 -571 l-3 -391 -58 -6 c-119 -10 -225
-87 -277 -200 l-29 -62 0 -935 0 -935 26 -56 c37 -79 90 -133 167 -171 l67
-33 2120 0 2120 0 56 28 c67 32 142 109 172 175 22 47 22 48 25 902 3 908 2
947 -44 1068 -32 85 -76 149 -184 267 -115 124 -171 210 -207 311 l-28 79 -5
608 -5 609 -24 19 c-17 14 -39 19 -82 19 l-59 0 0 135 0 135 315 0 316 0 24
25 c24 23 25 30 25 146 l0 121 -161 167 c-89 91 -192 196 -229 234 l-68 67
-261 0 -262 0 -24 -25 c-14 -13 -25 -36 -25 -50 0 -14 11 -37 25 -50 l24 -25
228 0 228 0 188 -188 c184 -184 187 -188 187 -230 l0 -42 -314 0 c-301 0 -314
-1 -339 -21 l-27 -20 -2 -187 -3 -187 -167 -3 -168 -2 0 245 c0 226 -1 246
-19 264 -10 10 -143 60 -297 111 -160 53 -293 103 -311 117 -43 32 -45 73 -4
114 l29 29 252 0 251 0 24 25 c14 13 25 36 25 50 0 14 -11 37 -25 50 l-24 25
-258 -1 c-200 0 -267 -4 -300 -15z m1165 -1321 l-3 -158 -337 -3 -338 -2 0
160 0 160 340 0 341 0 -3 -157z m-2983 -302 c82 -40 162 -116 199 -189 48 -94
56 -149 56 -369 l0 -204 -97 3 -98 3 -3 194 c-2 164 -5 198 -19 213 -15 16
-36 18 -225 18 -195 0 -209 -1 -228 -20 -19 -19 -20 -33 -20 -215 l0 -195
-101 0 -101 0 4 223 c5 251 12 286 78 385 49 73 129 137 213 168 54 21 76 24
167 21 96 -3 111 -6 175 -36z m-95 -621 l0 -140 -95 0 -95 0 0 140 0 140 95 0
95 0 0 -140z m1540 -135 l0 -156 -62 8 c-79 10 -206 10 -280 0 l-58 -7 0 155
0 155 200 0 200 0 0 -155z m-1190 -240 l0 -85 -445 0 -445 0 0 85 0 85 445 0
445 0 0 -85z m1175 -70 c127 -33 332 -152 319 -185 -33 -76 -54 -147 -59 -197
l-7 -60 -77 44 c-222 127 -467 132 -696 15 -33 -17 -76 -42 -95 -57 l-35 -26
-6 98 c-4 67 -13 114 -27 145 l-20 47 51 38 c108 81 205 124 332 149 84 16
235 11 320 -11z m-917 -184 c95 -49 112 -95 112 -301 l0 -160 -815 0 -815 0 0
153 c0 83 5 169 10 189 14 50 55 97 105 119 37 17 81 19 703 19 632 0 665 -1
700 -19z m835 -276 c94 -16 204 -69 275 -131 l52 -46 0 -482 0 -482 -37 -36
c-49 -47 -142 -103 -207 -124 -54 -17 -96 -53 -96 -82 0 -25 28 -62 56 -72 30
-12 153 30 229 78 l50 31 6 -167 c5 -147 9 -175 31 -230 l26 -62 -510 0 -510
0 15 23 c36 55 47 127 47 299 l0 169 58 -39 c74 -51 104 -66 180 -91 87 -28
135 -7 135 59 0 39 -24 64 -76 79 -74 23 -160 74 -229 140 l-68 63 0 442 0
442 58 56 c94 93 205 150 326 168 77 11 104 11 189 -5z m1392 -100 c111 -29
187 -88 303 -233 l33 -42 190 0 189 0 0 -320 0 -320 -179 0 c-99 0 -187 -3
-196 -6 -8 -4 -41 -39 -71 -80 -209 -277 -550 -269 -745 17 -21 31 -45 59 -54
63 -9 3 -100 6 -201 6 l-184 0 2 318 3 317 195 6 c107 3 196 6 196 7 39 60
112 147 145 174 116 94 246 126 374 93z m-2115 -655 l0 -420 -335 0 -336 0
-24 -25 c-32 -31 -32 -69 0 -100 l24 -25 336 0 335 0 0 -162 c0 -177 -10 -218
-61 -265 -59 -54 -46 -53 -757 -53 l-659 0 -44 23 c-24 13 -57 43 -74 66 l-30
43 -3 174 -4 174 337 0 336 0 24 25 c14 13 25 36 25 50 0 14 -11 37 -25 50
l-24 25 -336 0 -335 0 0 420 0 420 815 0 815 0 0 -420z m1533 -438 c30 -51
150 -156 223 -194 182 -96 394 -87 564 23 74 47 138 106 175 159 l28 40 153 0
154 0 0 -240 c0 -195 -3 -248 -15 -278 -21 -49 -52 -81 -100 -103 -38 -17 -80
-19 -701 -19 l-661 0 -44 23 c-29 16 -54 40 -74 72 l-30 48 -3 249 -4 248 159
0 159 0 17 -28z"/>
<path d="M3741 1594 c-27 -35 -26 -57 3 -91 l24 -28 157 -3 c177 -4 218 1 246
29 25 25 24 74 -1 99 -19 19 -33 20 -214 20 l-195 0 -20 -26z"/>
<path d="M3741 1304 c-27 -35 -26 -57 3 -91 l24 -28 192 0 c189 0 192 0 211
24 25 30 24 76 -1 101 -19 19 -33 20 -214 20 l-195 0 -20 -26z"/>
<path d="M3745 1015 c-28 -27 -30 -42 -14 -78 19 -41 48 -47 233 -47 160 0
175 2 200 21 33 26 36 79 6 109 -19 19 -33 20 -210 20 -189 0 -191 0 -215 -25z"/>
<path d="M620 1459 c-96 -43 -159 -132 -168 -235 -9 -112 53 -224 152 -277 57
-30 192 -31 251 -2 169 84 211 304 86 447 -18 20 -55 48 -83 62 -67 34 -170
36 -238 5z m180 -144 c31 -16 47 -39 60 -86 21 -72 -46 -159 -121 -159 -134 0
-188 156 -83 239 32 25 101 28 144 6z"/>
<path d="M1140 1400 c-30 -30 -27 -83 6 -109 26 -20 39 -21 309 -21 270 0 283
1 309 21 34 27 36 79 4 109 -21 19 -34 20 -315 20 -280 0 -294 -1 -313 -20z"/>
<path d="M1142 1107 c-31 -33 -29 -80 4 -106 26 -20 39 -21 309 -21 270 0 283
1 309 21 34 27 36 77 3 107 -23 22 -29 22 -313 22 l-291 0 -21 -23z"/>
</g>
</svg>
