<?xml version="1.0" standalone="no"?>
<!DOCTYPE svg PUBLIC "-//W3C//DTD SVG 20010904//EN"
 "http://www.w3.org/TR/2001/REC-SVG-20010904/DTD/svg10.dtd">
<svg version="1.0" xmlns="http://www.w3.org/2000/svg"
 width="512.000000pt" height="512.000000pt" viewBox="0 0 512.000000 512.000000"
 preserveAspectRatio="xMidYMid meet">

<g transform="translate(0.000000,512.000000) scale(0.100000,-0.100000)"
fill="#000000" stroke="none">
<path d="M3135 4786 c-41 -18 -83 -69 -91 -111 -15 -80 -3 -99 162 -265 l154
-156 0 -273 c0 -150 -4 -271 -8 -269 -5 2 -77 59 -159 128 l-151 125 -4 207
c-3 190 -5 209 -24 234 -39 53 -71 69 -134 69 -99 0 -150 -54 -159 -165 l-6
-70 -44 35 c-76 61 -159 59 -222 -4 -67 -67 -65 -157 5 -227 l41 -42 -77 -4
c-82 -3 -112 -17 -152 -72 -16 -20 -21 -42 -21 -86 0 -63 16 -95 69 -134 26
-20 43 -21 300 -24 l273 -3 186 -155 c103 -86 187 -159 187 -164 0 -5 -84 -78
-187 -164 l-186 -155 -273 -3 c-257 -3 -274 -4 -300 -24 -53 -39 -69 -71 -69
-134 0 -44 5 -66 21 -86 40 -55 70 -69 152 -72 l77 -4 -41 -42 c-67 -66 -72
-154 -13 -221 59 -67 145 -71 228 -11 l49 36 4 -70 c4 -74 19 -105 72 -144 39
-29 133 -29 172 0 67 50 69 56 72 282 l4 207 151 125 c82 69 154 127 159 128
4 2 8 -119 8 -269 l0 -273 -154 -156 c-166 -167 -177 -185 -161 -267 9 -49 69
-109 118 -118 62 -12 105 2 160 53 37 35 51 43 55 32 3 -8 20 -29 39 -47 59
-56 147 -56 206 0 19 18 36 39 39 47 4 11 18 3 55 -32 55 -51 98 -65 160 -53
49 9 109 69 118 118 16 82 5 100 -161 267 l-154 156 0 273 c0 150 4 271 8 269
5 -1 77 -59 159 -128 l151 -125 4 -207 c3 -226 5 -232 72 -282 39 -29 133 -29
172 0 53 39 68 70 72 144 l4 70 49 -36 c83 -60 169 -56 228 11 59 67 54 155
-13 221 l-41 42 77 4 c82 3 112 17 152 72 16 20 21 42 21 86 0 63 -16 95 -69
134 -26 20 -43 21 -300 24 l-273 3 -186 155 c-103 86 -187 159 -187 164 0 5
84 78 187 164 l186 155 273 3 c257 3 274 4 300 24 53 39 69 71 69 134 0 44 -5
66 -21 86 -40 55 -70 69 -152 72 l-77 4 41 42 c70 70 72 160 5 227 -63 63
-146 65 -222 4 l-44 -35 -6 70 c-6 75 -22 106 -73 144 -39 29 -133 29 -172 0
-67 -50 -69 -56 -72 -282 l-4 -207 -151 -125 c-82 -69 -154 -126 -159 -128 -4
-2 -8 119 -8 269 l0 273 154 156 c166 167 177 185 161 267 -9 49 -69 109 -118
118 -62 12 -105 -2 -160 -53 -37 -35 -51 -43 -55 -32 -10 29 -73 79 -107 86
-19 3 -51 3 -70 0 -34 -7 -97 -57 -107 -86 -4 -11 -16 -5 -49 27 -66 63 -127
78 -194 49z"/>
<path d="M1150 3194 c-404 -180 -748 -336 -764 -347 -15 -11 -37 -38 -47 -61
-18 -39 -19 -83 -19 -869 0 -890 -1 -866 51 -914 39 -34 1508 -683 1549 -683
45 0 1513 650 1553 688 45 42 49 75 45 374 -3 261 -4 278 -24 304 -39 53 -71
69 -134 69 -63 0 -95 -16 -134 -69 -19 -25 -21 -43 -24 -245 l-3 -218 -547
-243 c-301 -133 -553 -245 -559 -247 -10 -4 -13 124 -13 619 l0 624 146 64
c104 46 154 74 174 97 89 101 14 263 -121 263 -18 0 -104 -32 -193 -71 -88
-38 -167 -68 -176 -66 -34 9 -1020 451 -1020 457 0 6 986 448 1020 457 9 2 78
-23 153 -56 156 -69 202 -76 257 -38 48 32 72 69 77 119 6 52 -22 118 -62 144
-58 38 -382 174 -415 174 -24 0 -259 -99 -770 -326z m63 -975 l547 -243 0
-624 c0 -495 -3 -623 -12 -619 -7 2 -259 114 -560 248 l-548 243 0 624 c0 495
3 623 13 619 6 -2 258 -114 560 -248z"/>
</g>
</svg>
