<?xml version="1.0" standalone="no"?>
<!DOCTYPE svg PUBLIC "-//W3C//DTD SVG 20010904//EN"
 "http://www.w3.org/TR/2001/REC-SVG-20010904/DTD/svg10.dtd">
<svg version="1.0" xmlns="http://www.w3.org/2000/svg"
 width="512.000000pt" height="512.000000pt" viewBox="0 0 512.000000 512.000000"
 preserveAspectRatio="xMidYMid meet">

<g transform="translate(0.000000,512.000000) scale(0.100000,-0.100000)"
fill="#000000" stroke="none">
<path d="M1875 5104 c-59 -21 -110 -67 -139 -126 -25 -50 -26 -58 -26 -236 l0
-184 -317 -396 c-190 -239 -326 -418 -342 -452 l-26 -55 -3 -385 -3 -386 -77
1 c-88 0 -155 -22 -327 -108 -138 -68 -235 -137 -336 -237 -100 -100 -177
-214 -220 -325 -61 -157 -60 -130 -57 -1123 l3 -907 22 -40 c25 -47 74 -95
123 -121 34 -18 113 -19 2410 -19 2297 0 2376 1 2410 19 49 26 98 74 123 121
l22 40 0 1735 c0 1680 -1 1737 -19 1784 -13 34 -118 174 -337 448 l-319 398 0
168 c0 195 -11 246 -66 310 -20 24 -55 53 -78 65 l-41 22 -1170 2 c-997 1
-1176 -1 -1210 -13z m2362 -178 c28 -24 28 -24 31 -170 l3 -146 -1195 0 -1196
0 0 143 c0 148 3 163 45 185 14 8 352 11 1152 12 l1132 0 28 -24z m-74 -500
c-4 -7 -127 -162 -273 -344 l-265 -332 -1168 0 c-978 0 -1167 2 -1160 14 4 7
127 162 273 344 l265 332 1168 0 c978 0 1167 -2 1160 -14z m136 -2527 c34 -27
82 -25 112 7 l24 26 5 1168 5 1168 230 -285 c127 -156 240 -303 253 -325 l22
-41 0 -1694 0 -1695 -29 -29 -29 -29 -226 0 -226 0 0 730 c0 795 2 772 -55
798 -32 15 -61 8 -92 -21 l-23 -20 0 -744 0 -743 -257 2 -258 3 -3 1729 -2
1728 257 322 258 321 5 -1178 5 -1179 24 -19z m-719 401 l0 -1280 -252 2 -253
3 -2 280 -2 280 52 41 c174 135 287 372 287 600 0 322 -232 626 -584 763 -159
62 -242 76 -451 76 -157 0 -192 -3 -269 -24 -197 -51 -364 -147 -505 -288
l-85 -84 -140 57 c-78 31 -151 63 -163 71 l-23 13 0 385 0 385 1195 0 1195 0
0 -1280z m-928 567 c347 -91 588 -354 588 -643 0 -135 -66 -310 -144 -383
l-26 -24 0 44 c-1 86 -57 171 -140 214 -25 12 -313 134 -640 270 -327 136
-597 249 -599 251 -8 8 73 85 134 129 111 79 257 141 392 165 26 5 113 7 193
5 115 -2 165 -8 242 -28z m-911 -477 c436 -182 795 -333 798 -335 2 -3 -527
-5 -1177 -5 l-1182 0 26 72 c71 196 225 364 442 481 96 52 250 116 278 117 12
0 379 -149 815 -330z m1159 -1337 c-1 -635 -3 -832 -13 -844 -27 -35 -53 -39
-275 -39 l-220 0 36 70 c32 63 37 81 40 164 3 71 0 107 -13 147 -32 99 -101
186 -191 242 -111 69 -276 76 -396 19 -148 -72 -248 -229 -248 -390 0 -58 28
-152 60 -204 l29 -48 -740 0 -741 0 -29 29 -29 29 0 232 0 231 44 -6 c69 -11
182 12 266 52 197 95 315 317 281 531 -39 255 -250 435 -508 436 l-83 0 0 88
0 88 1365 0 1365 0 0 -827z m-2527 461 c153 -54 248 -219 217 -378 -7 -33 -21
-78 -32 -99 -23 -46 -94 -119 -136 -141 -57 -29 -144 -47 -200 -40 l-52 6 2
332 3 331 35 6 c43 8 112 1 163 -17z m3207 -749 l0 -85 -255 0 -255 0 0 85 0
85 255 0 255 0 0 -85z m-1430 -106 c60 -27 98 -64 126 -124 69 -145 -13 -318
-169 -356 -252 -61 -420 253 -233 432 71 68 188 88 276 48z m1430 -319 l0
-170 -261 0 -261 0 6 23 c3 12 6 88 6 170 l0 147 255 0 255 0 0 -170z"/>
<path d="M1229 1701 c-96 -20 -177 -102 -198 -202 -24 -112 38 -232 144 -280
54 -25 156 -25 210 0 188 85 199 356 19 453 -54 29 -121 40 -175 29z m86 -175
c80 -34 53 -156 -35 -156 -86 0 -115 121 -37 155 40 18 32 18 72 1z"/>
<path d="M2324 1700 c-102 -21 -203 -102 -247 -198 -17 -37 -22 -66 -22 -137
0 -78 4 -97 28 -146 67 -137 218 -215 365 -188 109 21 198 87 247 186 26 51
29 69 30 148 0 79 -4 97 -28 146 -66 136 -230 219 -373 189z m151 -189 c63
-36 97 -121 76 -191 -23 -78 -81 -122 -161 -122 -193 0 -236 261 -53 328 44
16 94 10 138 -15z"/>
<path d="M912 824 c-155 -77 -190 -280 -70 -403 69 -70 158 -94 252 -67 222
65 250 367 44 470 -72 36 -154 36 -226 0z m153 -150 c19 -8 45 -55 45 -83 0
-30 -41 -70 -77 -77 -27 -5 -37 -1 -63 24 -70 71 0 172 95 136z"/>
</g>
</svg>
