<?xml version="1.0" standalone="no"?>
<!DOCTYPE svg PUBLIC "-//W3C//DTD SVG 20010904//EN"
 "http://www.w3.org/TR/2001/REC-SVG-20010904/DTD/svg10.dtd">
<svg version="1.0" xmlns="http://www.w3.org/2000/svg"
 width="512.000000pt" height="512.000000pt" viewBox="0 0 512.000000 512.000000"
 preserveAspectRatio="xMidYMid meet">

<g transform="translate(0.000000,512.000000) scale(0.100000,-0.100000)"
fill="#000000" stroke="none">
<path d="M825 5015 c-24 -23 -25 -29 -25 -160 l0 -135 -55 0 c-46 0 -60 -4
-80 -25 -25 -24 -25 -26 -25 -215 0 -189 0 -191 25 -215 20 -21 34 -25 81 -25
l57 0 -5 -142 c-8 -230 -47 -314 -231 -499 -90 -91 -121 -130 -154 -194 -61
-118 -83 -202 -90 -332 l-6 -113 -94 0 c-86 0 -96 -2 -118 -25 -25 -24 -25
-26 -25 -215 0 -189 0 -191 25 -215 22 -23 31 -25 124 -25 l99 0 6 -37 c11
-63 306 -2287 306 -2301 0 -7 11 -24 25 -37 l24 -25 2151 0 2151 0 26 26 c21
21 25 32 20 65 -16 119 -141 277 -267 336 -86 41 -149 53 -273 53 -77 0 -112
5 -142 19 -49 22 -91 69 -105 119 -8 25 -10 196 -8 547 l4 510 27 88 c31 100
63 167 118 249 31 44 50 62 93 81 218 100 410 302 490 516 52 138 60 187 60
351 l-1 155 -120 544 c-104 469 -124 547 -143 563 -21 17 -65 18 -770 18 -706
0 -749 -1 -770 -18 -19 -15 -33 -67 -90 -331 -38 -172 -70 -315 -73 -317 -10
-11 -95 98 -126 161 -44 91 -61 177 -61 313 0 94 2 112 15 112 9 0 27 11 40
25 25 24 25 26 25 215 0 189 0 191 -25 215 -20 21 -34 25 -80 25 l-55 0 0 135
c0 131 -1 137 -25 160 l-24 25 -271 0 -271 0 -24 -25 c-24 -23 -25 -29 -25
-160 l0 -135 -55 0 c-46 0 -60 -4 -80 -25 -25 -24 -25 -26 -25 -215 0 -189 0
-191 25 -215 20 -21 34 -25 81 -25 l57 0 -5 -142 c-8 -225 -49 -319 -217 -486
-54 -53 -107 -110 -119 -127 l-22 -30 -22 30 c-12 17 -63 72 -115 123 -172
171 -213 262 -221 490 l-5 142 57 0 c47 0 61 4 81 25 25 24 25 26 25 215 0
189 0 191 -25 215 -20 21 -34 25 -80 25 l-55 0 0 135 c0 131 -1 137 -25 160
l-24 25 -271 0 -271 0 -24 -25z m455 -215 l0 -80 -160 0 -160 0 0 80 0 80 160
0 160 0 0 -80z m1360 0 l0 -80 -160 0 -160 0 0 80 0 80 160 0 160 0 0 -80z
m-1200 -320 l0 -80 -320 0 -320 0 0 80 0 80 320 0 320 0 0 -80z m1360 0 l0
-80 -320 0 -320 0 0 80 0 80 320 0 320 0 0 -80z m-1517 -392 c6 -174 21 -240
90 -373 33 -63 67 -106 163 -205 76 -79 132 -146 149 -179 l27 -54 -16 -86
c-9 -47 -16 -119 -16 -158 l0 -73 -40 0 -40 0 0 135 c0 131 -1 137 -25 160
l-24 25 -431 0 -431 0 -24 -25 c-24 -23 -25 -29 -25 -160 l0 -135 -81 0 -82 0
5 103 c10 188 57 282 230 457 90 92 122 131 155 195 69 134 84 199 90 373 l6
152 157 0 157 0 6 -152z m1440 0 c6 -174 21 -240 90 -372 29 -56 67 -106 128
-171 l87 -91 -20 -87 -20 -87 -549 0 -550 0 31 59 c20 38 73 101 148 177 94
95 126 135 159 199 69 134 84 199 90 373 l6 152 197 0 197 0 6 -152z m1990
-195 c32 -148 58 -273 57 -279 0 -17 -53 -62 -92 -78 -80 -34 -150 -17 -241
57 -77 62 -133 82 -237 82 -104 0 -160 -20 -237 -82 -120 -98 -208 -99 -321
-4 -99 84 -229 111 -350 73 -41 -13 -62 -16 -59 -9 2 7 28 123 58 260 l53 247
656 0 656 0 57 -267z m-1239 -387 c19 -8 59 -34 89 -59 77 -62 133 -82 237
-82 104 0 160 20 237 82 66 54 109 73 163 73 54 0 97 -19 163 -73 78 -64 133
-82 242 -82 78 1 98 5 148 29 32 15 60 26 62 25 1 -2 16 -60 31 -129 36 -154
40 -342 10 -449 -85 -311 -348 -541 -676 -592 -113 -17 -366 -6 -457 20 -159
46 -285 122 -391 236 -190 205 -249 438 -186 744 l26 126 51 54 c83 85 169
111 251 77z m-2034 -466 l0 -80 -320 0 -320 0 0 80 0 80 320 0 320 0 0 -80z
m1520 0 l0 -80 -560 0 -560 0 0 80 0 80 560 0 560 0 0 -80z m49 -302 c12 -35
24 -71 28 -80 5 -17 -66 -18 -1396 -18 l-1401 0 0 80 0 80 1374 0 1373 0 22
-62z m156 -285 c10 -15 49 -58 88 -96 l70 -69 -29 -221 -30 -222 -349 -3 -350
-2 -90 87 c-98 96 -168 142 -273 180 -189 69 -375 69 -564 0 -105 -38 -175
-84 -273 -180 l-90 -87 -350 2 -349 3 -37 280 c-21 154 -40 297 -43 318 l-6
37 1329 0 1329 0 17 -27z m359 -283 c72 -32 151 -160 203 -327 l27 -88 4 -510
c4 -543 2 -559 -44 -615 -46 -54 -76 -63 -229 -71 -86 -4 -157 -13 -184 -23
-24 -9 -46 -15 -48 -13 -2 3 46 376 107 830 60 454 110 828 110 831 0 9 3 8
54 -14z m638 -165 c-18 -44 -43 -118 -55 -165 -21 -82 -22 -103 -22 -630 l0
-545 27 -57 c34 -73 104 -143 176 -175 49 -23 74 -27 202 -33 127 -5 152 -9
202 -32 32 -15 78 -48 104 -75 l47 -48 -421 -3 c-232 -1 -612 -1 -844 0 l-421
3 44 46 c25 25 71 58 104 74 53 27 71 29 205 35 128 6 153 10 202 33 72 32
142 102 176 175 l27 57 0 545 c0 527 -1 548 -22 630 -12 47 -37 121 -55 165
l-34 80 196 0 196 0 -34 -80z m-2108 -20 c185 -39 355 -171 435 -337 94 -194
94 -382 0 -576 -80 -166 -254 -299 -439 -338 -94 -20 -229 -14 -320 15 -157
50 -305 175 -378 321 -95 191 -95 389 0 580 128 256 419 395 702 335z m-886
-357 c-62 -164 -62 -372 0 -535 l20 -53 -254 0 c-203 0 -254 3 -254 13 0 7
-18 148 -40 312 -22 164 -40 302 -40 307 0 4 132 8 294 8 l294 0 -20 -52z
m2072 44 c0 -5 -18 -143 -40 -307 -22 -164 -40 -305 -40 -312 0 -10 -51 -13
-254 -13 l-254 0 20 53 c28 72 48 186 48 267 0 81 -20 195 -48 268 l-20 52
294 0 c162 0 294 -4 294 -8z m-1875 -879 c98 -96 168 -142 273 -180 308 -112
629 -39 855 196 l69 71 284 0 284 0 0 -22 c0 -12 -14 -122 -30 -245 -30 -222
-31 -223 -70 -285 -22 -33 -40 -67 -40 -75 0 -11 -185 -13 -1100 -13 -605 0
-1100 1 -1100 3 0 1 -18 135 -40 297 -22 162 -40 305 -40 318 l0 22 283 0 282
0 90 -87z"/>
</g>
</svg>
