<?xml version="1.0" standalone="no"?>
<!DOCTYPE svg PUBLIC "-//W3C//DTD SVG 20010904//EN"
 "http://www.w3.org/TR/2001/REC-SVG-20010904/DTD/svg10.dtd">
<svg version="1.0" xmlns="http://www.w3.org/2000/svg"
 width="512.000000pt" height="512.000000pt" viewBox="0 0 512.000000 512.000000"
 preserveAspectRatio="xMidYMid meet">

<g transform="translate(0.000000,512.000000) scale(0.100000,-0.100000)"
fill="#000000" stroke="none">
<path d="M3035 4922 c-147 -94 -262 -294 -300 -523 l-5 -37 -69 28 c-129 53
-325 90 -474 90 -48 0 -62 -4 -82 -25 -47 -46 -36 -76 63 -173 48 -48 108
-112 134 -142 53 -64 128 -170 128 -181 0 -4 -29 5 -65 22 -123 55 -342 99
-500 99 -46 0 -60 -4 -80 -25 -47 -47 -37 -72 80 -190 127 -129 218 -248 281
-370 l48 -92 -78 -88 c-213 -239 -330 -515 -352 -828 l-7 -92 -101 -33 c-56
-18 -119 -44 -140 -58 -21 -14 -40 -23 -44 -20 -9 9 17 178 44 284 13 52 37
121 54 154 16 34 30 72 30 85 0 32 -43 73 -75 73 -46 0 -66 -20 -105 -103 -44
-96 -72 -200 -95 -358 -9 -63 -20 -127 -23 -142 l-7 -28 -67 41 c-37 22 -109
54 -160 72 -82 28 -106 32 -203 32 -115 0 -208 -20 -300 -66 -236 -119 -385
-364 -402 -663 -5 -84 1 -140 32 -350 20 -137 43 -279 51 -315 44 -187 143
-425 227 -543 89 -124 215 -219 351 -264 70 -23 97 -27 201 -27 113 0 126 2
227 37 l108 38 106 -37 c237 -81 456 -45 642 106 l64 51 91 -40 c441 -192 937
-211 1406 -56 707 236 1246 864 1287 1502 7 100 6 101 -19 127 l-26 26 -215 0
-214 0 -5 332 c-4 288 -7 345 -25 423 -56 248 -157 446 -327 639 l-79 89 47
91 c61 119 153 241 282 371 118 119 128 143 79 192 -26 26 -27 26 -139 19
-175 -10 -364 -54 -473 -110 -18 -9 -32 -13 -32 -8 0 30 142 205 262 324 100
99 110 127 62 175 -26 26 -26 26 -142 19 -145 -8 -269 -33 -389 -78 l-93 -35
-6 36 c-25 159 -100 329 -187 426 -60 67 -158 135 -196 135 -14 0 -53 -17 -86
-38z m153 -195 c80 -86 137 -219 162 -380 l10 -67 -98 -98 c-54 -53 -107 -112
-117 -129 -11 -18 -22 -33 -25 -33 -3 0 -14 15 -25 33 -10 17 -63 76 -117 129
l-98 98 10 67 c14 92 46 195 82 267 34 67 122 166 148 166 9 0 40 -24 68 -53z
m-703 -448 c236 -61 435 -216 540 -419 26 -50 45 -93 43 -95 -1 -2 -46 -8 -98
-14 -52 -6 -132 -21 -178 -32 -46 -11 -85 -19 -86 -17 -1 1 -9 33 -19 71 -32
128 -135 314 -262 470 -27 33 -41 57 -33 57 8 0 50 -9 93 -21z m1326 -41
c-128 -159 -225 -333 -258 -465 -10 -37 -18 -70 -20 -72 -1 -1 -32 5 -70 14
-37 10 -102 23 -143 29 l-75 12 -17 48 -18 48 27 51 c16 29 72 97 128 153 89
89 112 106 205 152 94 47 224 90 273 91 15 1 7 -13 -32 -61z m-1645 -358 c153
-39 384 -177 384 -230 0 -10 -13 -23 -31 -30 -17 -8 -68 -37 -114 -65 l-82
-52 -27 55 c-33 67 -119 196 -187 280 -30 37 -45 62 -37 62 8 0 50 -9 94 -20z
m1965 -42 c-68 -84 -154 -213 -187 -280 l-27 -55 -82 52 c-46 28 -97 57 -114
65 -18 7 -31 20 -31 30 0 52 229 190 380 229 118 31 119 30 61 -41z m-1321
-388 c-74 -71 -138 -129 -142 -129 -4 -1 -37 27 -73 61 l-67 62 44 23 c103 54
350 132 368 116 2 -2 -56 -62 -130 -133z m700 85 c25 -8 80 -32 123 -52 l78
-37 -63 -63 c-35 -35 -68 -62 -75 -61 -10 3 -273 256 -273 264 0 5 167 -35
210 -51z m-216 -492 c-91 -90 -168 -163 -172 -163 -4 0 -81 72 -172 160 l-165
159 168 167 167 166 170 -163 169 -164 -165 -162z m-815 233 l73 -74 -168
-165 -169 -166 -67 66 -67 66 51 76 c53 80 237 271 260 271 7 0 47 -33 87 -74z
m1480 -23 c54 -54 121 -134 151 -177 l53 -79 -64 -58 c-35 -32 -68 -58 -73
-59 -5 0 -83 73 -173 163 l-165 162 79 72 c43 40 82 73 86 73 5 0 53 -44 106
-97z m-1049 -398 l95 -96 -165 -159 c-91 -88 -170 -159 -177 -157 -6 1 -84 73
-172 160 l-161 159 167 163 168 162 75 -68 c41 -37 118 -111 170 -164z m1000
-95 c0 -3 -75 -78 -168 -166 l-167 -161 -170 165 -170 164 170 163 169 163
168 -161 c92 -88 168 -163 168 -167z m-1855 40 l39 -40 -77 -78 -78 -77 7 40
c10 59 54 195 62 195 5 0 26 -18 47 -40z m2208 -37 c14 -43 28 -96 31 -118 l7
-40 -78 77 -77 78 39 40 c21 22 42 40 47 40 4 0 18 -35 31 -77z m-1713 -443
c0 -3 -38 -40 -85 -83 l-85 -79 -53 48 c-102 92 -210 150 -330 176 l-50 10
134 128 134 127 167 -161 c93 -89 168 -163 168 -166z m746 -157 c-88 -90 -165
-163 -171 -163 -5 0 -84 72 -175 160 l-165 159 168 167 168 166 168 -163 168
-164 -161 -162z m883 341 l141 -136 0 -48 0 -48 -142 -136 c-78 -75 -147 -136
-152 -136 -5 0 -82 72 -170 160 l-161 160 160 160 c88 88 165 160 171 160 7 0
75 -61 153 -136z m-3159 -294 c35 -12 94 -39 130 -60 36 -21 82 -43 103 -50
l39 -12 -7 -77 c-4 -42 -9 -77 -10 -79 -5 -6 -76 27 -102 48 -54 43 -133 7
-133 -61 0 -77 167 -159 323 -159 154 1 317 83 317 159 0 68 -79 104 -133 61
-30 -24 -97 -53 -104 -46 -3 3 -2 41 2 85 7 77 8 80 35 86 16 3 57 24 92 45
228 137 466 111 649 -70 108 -107 164 -242 175 -420 5 -79 0 -136 -30 -335
-53 -346 -90 -478 -194 -680 -108 -212 -312 -341 -510 -322 -32 2 -108 21
-170 41 -61 20 -121 36 -132 36 -11 0 -71 -16 -132 -36 -132 -43 -204 -51
-290 -35 -104 21 -184 65 -269 150 -67 66 -84 92 -137 201 -99 202 -126 301
-177 641 -19 130 -35 267 -35 303 0 348 256 627 560 612 41 -2 104 -14 140
-26z m1900 -244 l44 -46 -226 0 -227 0 -21 47 -21 47 97 97 98 98 105 -99 c58
-54 126 -119 151 -144z m915 -8 l40 -38 -299 0 -300 0 150 144 149 144 110
-106 c61 -58 128 -123 150 -144z m485 27 l0 -65 -67 0 -67 0 64 65 c35 36 66
65 67 65 2 0 3 -29 3 -65z m140 -243 c0 -89 -121 -356 -224 -492 -129 -172
-344 -353 -528 -446 -329 -165 -665 -204 -1018 -118 -82 20 -263 84 -278 98
-1 2 5 23 13 47 33 92 66 252 101 489 29 198 35 264 31 343 l-5 97 954 0 c906
0 954 -1 954 -18z m336 -4 c-3 -13 -10 -54 -16 -91 -70 -437 -453 -903 -935
-1138 -478 -233 -1014 -250 -1501 -48 l-71 30 36 69 c20 39 40 70 45 70 5 0
49 -16 98 -36 710 -284 1539 -13 1969 644 96 148 164 312 203 495 6 27 7 27
91 27 83 0 85 -1 81 -22z"/>
<path d="M4025 1575 c-50 -49 -15 -135 55 -135 41 0 80 39 80 80 0 41 -39 80
-80 80 -19 0 -40 -9 -55 -25z"/>
<path d="M2745 1415 c-50 -49 -15 -135 55 -135 41 0 80 39 80 80 0 41 -39 80
-80 80 -19 0 -40 -9 -55 -25z"/>
<path d="M3225 1415 c-50 -49 -15 -135 55 -135 41 0 80 39 80 80 0 41 -39 80
-80 80 -19 0 -40 -9 -55 -25z"/>
<path d="M3625 1175 c-50 -49 -15 -135 55 -135 41 0 80 39 80 80 0 41 -39 80
-80 80 -19 0 -40 -9 -55 -25z"/>
<path d="M2985 935 c-50 -49 -15 -135 55 -135 41 0 80 39 80 80 0 41 -39 80
-80 80 -19 0 -40 -9 -55 -25z"/>
</g>
</svg>
