<?xml version="1.0" standalone="no"?>
<!DOCTYPE svg PUBLIC "-//W3C//DTD SVG 20010904//EN"
 "http://www.w3.org/TR/2001/REC-SVG-20010904/DTD/svg10.dtd">
<svg version="1.0" xmlns="http://www.w3.org/2000/svg"
 width="512.000000pt" height="512.000000pt" viewBox="0 0 512.000000 512.000000"
 preserveAspectRatio="xMidYMid meet">

<g transform="translate(0.000000,512.000000) scale(0.100000,-0.100000)"
fill="#000000" stroke="none">
<path d="M825 4935 c-24 -24 -25 -28 -25 -182 l0 -157 -241 -242 -241 -242 4
-159 c4 -139 8 -167 32 -232 30 -85 33 -149 10 -212 -26 -72 -29 -184 -9 -259
27 -95 30 -162 10 -218 -26 -76 -31 -186 -10 -262 27 -95 30 -162 10 -218 -26
-76 -31 -186 -10 -262 27 -95 30 -162 10 -218 -26 -76 -31 -186 -10 -262 27
-95 30 -162 10 -218 -26 -76 -31 -186 -10 -262 26 -93 29 -158 11 -220 -22
-74 -20 -174 4 -254 l21 -66 -21 -69 c-25 -81 -18 -129 27 -182 52 -61 14 -59
928 -59 l835 0 0 -135 c0 -132 1 -137 25 -161 26 -26 26 -26 183 -22 147 3
161 5 217 31 33 16 71 39 85 52 25 23 26 23 94 9 57 -12 181 -14 710 -12 631
3 642 4 706 25 l65 22 35 -33 c83 -78 147 -96 332 -96 135 0 140 1 164 25 26
26 26 26 22 183 -3 148 -5 161 -32 219 -18 39 -48 81 -80 111 l-51 48 3 307 4
307 54 0 c45 0 59 4 79 25 l25 24 0 271 0 271 -25 24 c-22 23 -32 25 -118 25
l-94 0 -5 83 c-7 133 -62 221 -172 278 -63 33 -64 34 -71 82 -7 55 -40 128
-79 174 -34 41 -131 90 -193 98 -49 7 -51 8 -57 45 -10 64 -72 173 -129 227
-100 94 -208 133 -374 133 -83 0 -103 3 -103 14 0 8 9 52 20 98 25 104 25 152
0 256 -25 104 -25 120 1 229 27 110 22 183 -20 313 l-31 95 -235 235 -235 235
0 158 c0 154 -1 158 -25 182 l-24 25 -991 0 -991 0 -24 -25z m1895 -215 l0
-80 -880 0 -880 0 0 80 0 80 880 0 880 0 0 -80z m205 -400 l160 -160 -845 0
-845 0 -160 160 -160 160 845 0 845 0 160 -160z m-1900 -20 l140 -140 -285 0
-285 0 140 140 c77 77 142 140 145 140 3 0 68 -63 145 -140z m255 -1980 l0
-1680 -380 0 c-421 0 -392 -6 -365 70 20 58 19 110 -5 170 -24 61 -25 127 -4
212 19 74 14 187 -11 260 -20 56 -17 123 10 218 21 76 16 186 -10 262 -20 56
-17 123 10 218 21 76 16 186 -10 262 -20 56 -17 123 10 218 21 76 16 186 -10
262 -20 56 -17 123 10 218 21 76 16 186 -10 262 -20 56 -17 123 10 218 22 83
16 185 -20 293 -17 53 -25 100 -25 147 l0 70 400 0 400 0 0 -1680z m1962 1620
c22 -73 22 -112 -2 -212 -25 -104 -25 -152 0 -256 25 -104 25 -120 -1 -228
-12 -51 -19 -111 -18 -143 3 -51 0 -61 -33 -106 -20 -27 -42 -66 -48 -86 -11
-31 -18 -38 -49 -43 -20 -3 -65 -20 -101 -37 -47 -23 -83 -32 -128 -34 l-62
-3 44 49 c51 57 66 97 97 260 22 111 22 118 6 143 -10 14 -28 28 -41 32 -32 8
-269 -41 -322 -67 -79 -38 -174 -158 -174 -221 0 -10 -4 -18 -10 -18 -5 0 -10
8 -10 18 0 34 -48 118 -91 160 -60 59 -106 78 -258 109 -204 41 -219 26 -178
-178 30 -149 51 -200 105 -253 l37 -38 -57 7 c-52 7 -59 5 -82 -18 -32 -32
-32 -35 -1 -188 29 -141 50 -190 103 -243 l37 -38 -57 7 c-52 7 -59 5 -82 -18
-32 -32 -32 -35 -1 -188 28 -137 48 -187 99 -243 l35 -37 -54 6 c-49 7 -56 5
-79 -18 -14 -15 -26 -35 -26 -45 0 -43 52 -269 70 -307 47 -97 158 -172 271
-182 l59 -6 0 -226 c0 -154 5 -247 14 -291 14 -65 14 -65 -12 -92 l-26 -28
-388 0 -388 0 0 1680 0 1680 892 -2 892 -3 18 -55z m-1152 -855 c83 -16 149
-92 150 -172 0 -31 -2 -33 -32 -33 -81 1 -157 67 -173 150 -3 19 -9 43 -12 53
-4 15 -1 18 14 14 10 -3 34 -9 53 -12z m686 -2 c-2 -10 -8 -34 -11 -53 -16
-83 -92 -149 -172 -150 -31 0 -33 2 -33 33 1 47 33 111 70 137 18 13 56 29 84
36 68 16 68 17 62 -3z m886 -151 c59 -29 120 -90 148 -147 12 -24 25 -76 29
-116 10 -95 26 -109 122 -109 86 0 128 -17 165 -65 25 -33 29 -48 34 -127 4
-79 8 -92 29 -109 13 -10 36 -19 52 -19 47 0 94 -25 125 -65 23 -31 29 -50 32
-106 l4 -69 -962 0 -962 0 7 47 c8 53 41 125 79 170 39 46 134 92 207 100 84
8 104 28 112 111 7 65 38 138 81 189 39 46 134 92 207 100 74 7 109 34 109 82
0 62 38 121 95 147 21 10 61 13 135 11 85 -2 114 -7 152 -25z m-1238 -187 c21
-21 35 -25 82 -25 l57 0 -36 -27 c-45 -35 -104 -124 -113 -169 -3 -19 -10 -34
-14 -34 -4 0 -11 15 -14 34 -9 45 -68 134 -113 169 l-36 27 57 0 c47 0 60 4
79 24 12 13 23 24 24 25 1 1 13 -10 27 -24z m-334 -140 c83 -16 149 -92 150
-172 0 -31 -2 -33 -32 -33 -81 1 -157 67 -173 150 -3 19 -9 43 -12 53 -4 15
-1 18 14 14 10 -3 34 -9 53 -12z m655 -59 l-23 -68 -63 -22 c-35 -13 -72 -26
-81 -30 -47 -21 0 107 52 144 25 18 127 52 137 46 1 -1 -9 -32 -22 -70z m-337
-263 c-9 -19 -63 -128 -65 -132 -2 -2 -25 17 -52 42 l-50 47 55 0 c45 0 59 4
77 24 21 23 43 34 35 19z m-318 -158 c49 -10 99 -42 121 -79 10 -17 19 -34 19
-38 0 -5 -21 -8 -48 -8 -28 0 -57 -7 -71 -16 -23 -16 -25 -16 -42 7 -17 22
-27 48 -43 122 -6 24 -4 28 11 24 10 -3 34 -9 53 -12z m2550 -445 l0 -160
-1200 0 -1200 0 0 160 0 160 1200 0 1200 0 0 -160z m-2574 -30 c11 0 14 -17
14 -77 l0 -78 -19 29 c-11 16 -22 45 -26 65 -3 20 -9 45 -12 55 -4 15 -2 18
12 13 9 -4 23 -7 31 -7z m2413 -557 c0 -220 -3 -280 -17 -334 -44 -167 -186
-305 -352 -343 -102 -24 -1238 -24 -1340 0 -166 38 -308 176 -352 343 -14 54
-17 114 -17 334 l-1 267 1040 0 1040 0 -1 -267z m151 -593 c5 -19 10 -68 10
-107 l0 -73 -72 0 c-78 0 -131 12 -162 35 -17 13 -15 17 37 67 30 30 72 80 92
113 l38 59 24 -30 c13 -16 28 -45 33 -64z m-2236 -32 c21 -26 60 -64 87 -85
33 -25 46 -40 39 -47 -6 -6 -53 -12 -106 -14 l-96 -4 4 93 c4 92 13 129 27
112 4 -4 24 -29 45 -55z"/>
<path d="M2352 3823 c-29 -27 -136 -172 -163 -223 -20 -38 -24 -59 -24 -135 0
-118 20 -161 122 -265 107 -109 119 -109 223 -2 103 105 125 151 125 267 0
105 -11 130 -108 260 -73 98 -92 115 -127 115 -15 0 -37 -8 -48 -17z m88 -249
c56 -78 52 -170 -10 -229 l-30 -29 -30 29 c-62 59 -66 151 -10 229 19 25 36
46 40 46 4 0 21 -21 40 -46z"/>
<path d="M3520 2480 l0 -80 80 0 80 0 0 80 0 80 -80 0 -80 0 0 -80z"/>
<path d="M3280 2240 l0 -80 80 0 80 0 0 80 0 80 -80 0 -80 0 0 -80z"/>
<path d="M3005 2273 c-38 -19 -72 -37 -74 -39 -5 -4 60 -144 66 -144 5 0 147
71 152 76 6 5 -61 144 -68 144 -3 -1 -37 -17 -76 -37z"/>
<path d="M3885 2273 c-38 -19 -72 -37 -74 -39 -5 -4 60 -144 66 -144 5 0 147
71 152 76 6 5 -61 144 -68 144 -3 -1 -37 -17 -76 -37z"/>
<path d="M2640 1200 l0 -80 80 0 80 0 0 80 0 80 -80 0 -80 0 0 -80z"/>
<path d="M4160 1040 l0 -80 80 0 80 0 0 80 0 80 -80 0 -80 0 0 -80z"/>
<path d="M2800 960 l0 -80 80 0 80 0 0 80 0 80 -80 0 -80 0 0 -80z"/>
</g>
</svg>
