<?xml version="1.0" standalone="no"?>
<!DOCTYPE svg PUBLIC "-//W3C//DTD SVG 20010904//EN"
 "http://www.w3.org/TR/2001/REC-SVG-20010904/DTD/svg10.dtd">
<svg version="1.0" xmlns="http://www.w3.org/2000/svg"
 width="512.000000pt" height="512.000000pt" viewBox="0 0 512.000000 512.000000"
 preserveAspectRatio="xMidYMid meet">

<g transform="translate(0.000000,512.000000) scale(0.100000,-0.100000)"
fill="#000000" stroke="none">
<path d="M3838 5105 c-156 -43 -364 -211 -486 -394 -83 -123 -119 -219 -202
-531 -40 -151 -76 -278 -79 -282 -3 -4 -44 8 -91 27 -101 40 -255 73 -362 77
-68 3 -80 0 -99 -19 -28 -27 -29 -77 -3 -103 14 -14 44 -22 123 -29 170 -18
297 -57 433 -135 250 -142 421 -368 501 -661 30 -108 32 -369 4 -487 l-18 -78
-212 0 c-230 0 -248 -4 -261 -55 -5 -20 10 -71 27 -87 1 -1 214 -5 472 -8
l470 -5 0 -200 c0 -182 -2 -200 -17 -203 -10 -2 -99 28 -198 67 -124 49 -192
71 -222 71 -31 0 -109 -26 -272 -90 -126 -50 -238 -90 -248 -90 -10 0 -122 41
-247 90 -165 65 -242 90 -273 90 -31 0 -108 -26 -271 -90 -126 -50 -237 -90
-247 -90 -11 0 -123 41 -249 90 -161 63 -242 90 -272 90 -29 0 -99 -22 -220
-70 -98 -38 -187 -70 -198 -70 -10 0 -22 7 -25 16 -12 31 -7 369 6 382 9 9
216 12 869 12 851 0 856 0 883 21 34 27 36 77 3 107 -22 21 -32 22 -281 24
l-258 3 -204 560 c-112 308 -204 566 -204 572 0 28 181 133 289 168 90 29 123
80 86 132 -28 40 -65 38 -177 -7 -56 -22 -136 -61 -177 -86 -41 -24 -78 -41
-82 -37 -4 5 -35 85 -69 178 -34 94 -77 199 -96 235 -97 185 -264 338 -456
418 -51 22 -79 27 -148 27 -76 0 -92 -3 -151 -32 -84 -42 -141 -103 -186 -199
-60 -132 -76 -210 -77 -379 -1 -95 4 -170 13 -205 9 -39 384 -1087 478 -1336
3 -7 -15 -13 -46 -16 -64 -6 -122 -44 -147 -95 -17 -34 -19 -62 -19 -253 0
-118 3 -227 8 -242 10 -37 60 -93 97 -108 l30 -12 0 -293 0 -294 26 -20 c30
-24 43 -26 77 -10 44 20 47 43 47 352 l0 292 148 58 c81 31 154 57 162 57 9 0
119 -41 245 -91 171 -67 241 -91 275 -90 33 0 106 24 273 90 125 50 236 91
245 91 9 0 121 -41 247 -91 173 -68 241 -91 275 -90 32 0 109 26 273 91 126
49 236 90 246 90 9 0 82 -26 161 -58 l145 -58 3 -772 c2 -852 4 -822 -60 -862
-33 -20 -43 -20 -1300 -18 l-1268 3 -32 33 -33 32 -5 346 -5 346 -24 19 c-32
26 -73 24 -99 -4 -22 -23 -22 -28 -22 -369 l0 -346 33 -63 c35 -68 97 -120
165 -139 24 -6 470 -10 1298 -10 1437 0 1329 -6 1420 84 88 89 84 44 84 927
l0 768 42 23 c27 15 50 38 65 67 22 42 23 53 23 265 0 191 -2 226 -18 255 -26
52 -82 92 -139 99 l-49 7 213 795 c117 437 220 836 229 885 19 104 16 316 -5
353 -27 49 -110 48 -128 -2 -4 -11 -6 -77 -4 -146 2 -86 -2 -148 -13 -199 -8
-40 -112 -435 -231 -877 -118 -441 -215 -805 -215 -808 0 -3 -31 -6 -69 -6
l-68 0 14 58 c8 31 17 127 20 212 6 175 -7 271 -58 423 -16 49 -29 89 -29 91
0 2 36 6 81 9 65 4 85 10 105 28 29 27 31 68 5 100 -17 21 -27 23 -122 24 -57
1 -119 8 -136 14 -21 8 -55 42 -97 94 -69 90 -128 147 -223 220 -35 27 -63 52
-63 56 0 5 36 143 80 307 85 318 123 415 204 528 87 121 261 264 367 301 118
42 234 -4 313 -125 45 -68 60 -80 100 -80 29 0 66 40 66 71 0 35 -55 125 -110
180 -102 102 -254 142 -392 104z m-2622 -640 c189 -95 307 -230 388 -447 19
-51 149 -408 289 -793 141 -385 258 -708 262 -717 7 -17 -17 -18 -413 -18
l-420 0 -35 98 c-283 771 -449 1238 -463 1300 -44 196 24 496 130 577 78 59
145 59 262 0z"/>
<path d="M1334 4019 c-64 -52 -140 -82 -228 -89 -70 -6 -83 -11 -103 -34 -28
-33 -29 -56 -3 -88 26 -34 76 -40 171 -24 96 17 197 65 255 120 52 50 57 84
19 121 -32 33 -64 31 -111 -6z"/>
<path d="M1464 3629 c-73 -58 -158 -89 -247 -89 -37 0 -53 -5 -72 -25 -14 -13
-25 -31 -25 -39 0 -28 22 -64 47 -75 84 -38 307 29 403 121 45 44 50 72 19
112 -29 37 -75 35 -125 -5z"/>
<path d="M1606 3244 c-67 -51 -130 -76 -205 -81 -83 -6 -115 -18 -130 -49 -16
-37 -14 -52 14 -79 64 -64 312 -4 424 103 48 46 53 81 16 117 -33 34 -64 31
-119 -11z"/>
<path d="M1784 2887 c-11 -7 -36 -24 -55 -39 -51 -40 -132 -68 -215 -75 -64
-5 -78 -10 -94 -31 -45 -57 0 -122 83 -122 61 1 173 30 243 65 71 34 144 101
144 130 0 30 -24 64 -53 75 -16 5 -30 10 -31 10 -1 -1 -10 -6 -22 -13z"/>
<path d="M3610 4447 c-29 -15 -45 -54 -36 -90 9 -36 112 -101 211 -134 99 -32
256 -38 298 -11 32 22 41 60 22 97 -18 36 -42 45 -103 36 -84 -11 -218 27
-302 85 -37 27 -62 31 -90 17z"/>
<path d="M3470 3980 c-33 -33 -27 -82 17 -120 86 -76 238 -124 373 -118 102 4
130 20 130 73 0 61 -16 69 -142 76 -123 7 -171 21 -254 76 -58 38 -95 42 -124
13z"/>
<path d="M2277 3579 c-30 -22 -71 -137 -60 -167 17 -48 67 -67 113 -42 23 12
60 108 60 155 0 24 -7 39 -26 54 -34 26 -54 26 -87 0z"/>
<path d="M2759 3579 c-15 -6 -32 -23 -39 -40 -11 -26 -10 -38 15 -100 28 -73
45 -89 94 -89 30 0 71 38 71 66 0 21 -50 142 -63 152 -21 16 -51 21 -78 11z"/>
<path d="M3053 3235 c-20 -14 -63 -120 -63 -156 0 -32 39 -69 74 -69 42 0 60
21 86 95 26 75 25 91 -5 120 -27 28 -61 32 -92 10z"/>
<path d="M2425 3135 c-5 -2 -29 -9 -53 -15 -34 -9 -46 -18 -57 -42 -16 -40 -3
-81 32 -97 39 -18 140 5 176 40 32 33 34 57 6 93 -16 20 -29 26 -57 25 -20 0
-41 -2 -47 -4z"/>
<path d="M2712 2873 c-11 -10 -30 -48 -42 -85 -19 -61 -20 -69 -6 -96 25 -48
70 -56 109 -19 27 24 57 103 57 149 0 58 -73 89 -118 51z"/>
<path d="M3235 2819 c-71 -37 -85 -52 -85 -94 0 -33 20 -58 55 -69 22 -6 129
40 158 68 27 27 22 81 -9 105 -35 28 -48 27 -119 -10z"/>
<path d="M2469 1599 c-185 -19 -337 -85 -440 -188 -74 -75 -107 -137 -115
-219 -21 -197 153 -374 435 -445 122 -30 351 -29 466 2 179 48 327 147 390
263 27 48 30 61 30 148 0 116 -21 167 -104 251 -105 104 -265 170 -456 189
-61 5 -114 9 -120 9 -5 -1 -44 -5 -86 -10z m318 -170 c124 -31 228 -95 274
-167 91 -143 -29 -300 -281 -368 -90 -24 -310 -25 -400 -1 -90 24 -197 79
-244 124 -117 114 -95 238 61 339 63 41 178 81 270 93 88 12 229 3 320 -20z"/>
<path d="M2378 1228 c-37 -40 -72 -85 -79 -99 -22 -55 33 -111 92 -96 26 7
133 129 147 168 18 48 -22 99 -76 99 -9 0 -47 -32 -84 -72z"/>
<path d="M2748 1288 c-39 -30 -138 -162 -138 -183 0 -12 10 -34 21 -49 17 -22
28 -26 57 -24 31 3 46 14 104 82 54 63 68 85 68 111 0 56 -70 95 -112 63z"/>
<path d="M1875 535 c-32 -31 -33 -74 -2 -103 22 -21 32 -22 201 -22 177 0 177
0 203 26 20 20 24 31 19 57 -12 62 -28 67 -223 67 -171 0 -174 0 -198 -25z"/>
<path d="M2486 538 c-36 -33 -39 -75 -6 -108 19 -19 33 -20 396 -20 245 0 382
4 395 11 48 25 44 105 -7 128 -17 7 -140 11 -389 11 -363 0 -364 0 -389 -22z"/>
</g>
</svg>
