<?xml version="1.0" standalone="no"?>
<!DOCTYPE svg PUBLIC "-//W3C//DTD SVG 20010904//EN"
 "http://www.w3.org/TR/2001/REC-SVG-20010904/DTD/svg10.dtd">
<svg version="1.0" xmlns="http://www.w3.org/2000/svg"
 width="512.000000pt" height="512.000000pt" viewBox="0 0 512.000000 512.000000"
 preserveAspectRatio="xMidYMid meet">

<g transform="translate(0.000000,512.000000) scale(0.100000,-0.100000)"
fill="#000000" stroke="none">
<path d="M720 4947 c-49 -16 -133 -102 -148 -153 -28 -94 -8 -169 63 -239 61
-62 101 -75 229 -75 l96 0 0 -160 c0 -141 -2 -160 -16 -160 -77 0 -189 -88
-212 -166 -7 -24 -12 -99 -12 -176 l0 -134 -81 -12 c-230 -33 -428 -222 -468
-446 -17 -90 -15 -2845 1 -2900 17 -58 100 -138 158 -154 35 -10 500 -12 2106
-10 l2061 3 49 30 c29 19 60 49 78 78 28 45 35 88 182 1039 84 546 153 1003
154 1016 0 13 -11 34 -25 47 -20 21 -34 25 -80 25 l-55 0 0 43 c0 36 11 59 80
162 l80 120 0 654 c0 484 -3 664 -12 695 -26 86 -136 166 -228 166 -81 0 -182
-62 -210 -130 l-12 -30 -225 0 -224 0 -24 -25 -25 -24 0 -511 0 -511 25 -24
c24 -25 24 -25 240 -25 l215 0 0 -42 c0 -37 -11 -60 -80 -163 l-80 -120 0
-117 0 -118 -203 0 -203 0 -33 438 c-47 619 -26 529 -167 717 l-119 160 -39
240 c-34 206 -43 243 -62 262 -22 22 -29 23 -214 23 -185 0 -192 -1 -214 -23
-19 -19 -28 -56 -62 -262 l-39 -240 -119 -160 c-141 -188 -120 -98 -167 -717
l-33 -438 -58 0 c-49 0 -63 -4 -83 -25 -14 -13 -25 -33 -25 -43 0 -11 18 -135
40 -277 22 -142 40 -266 40 -276 0 -18 -9 -19 -120 -19 l-119 0 -3 738 -3 737
-26 66 c-37 94 -70 148 -133 212 -89 90 -209 148 -335 163 l-61 7 0 135 c0 76
-5 152 -12 176 -23 78 -135 166 -212 166 -14 0 -16 19 -16 160 l0 160 97 0 96
0 111 -108 c117 -114 165 -142 246 -142 141 0 261 131 248 270 -8 81 -40 129
-177 264 -104 101 -143 133 -198 159 l-68 32 -560 2 c-391 1 -571 -2 -595 -10z
m1155 -171 c34 -16 87 -61 168 -143 101 -103 117 -124 117 -152 0 -44 -47 -91
-91 -91 -27 0 -49 17 -159 125 l-127 125 -507 0 -507 0 -24 25 c-16 15 -25 36
-25 55 0 19 9 40 25 55 l24 25 528 0 528 0 50 -24z m-515 -456 l0 -160 -120 0
-120 0 0 160 0 160 120 0 120 0 0 -160z m2015 -262 c9 -42 45 -265 45 -282 0
-14 -17 -16 -140 -16 -123 0 -140 2 -140 16 0 17 36 240 45 282 5 21 10 22 95
22 85 0 90 -1 95 -22z m1400 -3 l25 -24 0 -628 0 -628 -80 -120 -80 -120 0
-67 0 -68 -80 0 -80 0 0 93 0 92 80 120 80 120 0 603 0 603 25 24 c15 16 36
25 55 25 19 0 40 -9 55 -25z m-3200 -80 c24 -23 25 -29 25 -160 l0 -135 -360
0 -360 0 0 135 c0 131 1 137 25 160 l24 25 311 0 311 0 24 -25z m2905 -135 l0
-80 -160 0 -160 0 0 80 0 80 160 0 160 0 0 -80z m-940 -320 l61 -80 -321 0
-321 0 61 80 61 80 199 0 199 0 61 -80z m940 0 l0 -80 -160 0 -160 0 0 80 0
80 160 0 160 0 0 -80z m-2558 -37 c93 -44 151 -100 196 -191 l37 -76 3 -728 3
-728 -121 0 -120 0 0 536 c0 392 -3 548 -12 578 -16 55 -99 138 -154 154 -59
17 -969 17 -1028 0 -55 -16 -138 -99 -154 -154 -17 -59 -17 -1849 0 -1908 16
-55 99 -138 154 -154 28 -8 134 -12 337 -12 l295 0 3 -168 4 -168 36 -72 35
-72 -533 0 -534 0 -25 25 -24 24 2 1423 3 1423 32 67 c17 37 50 87 72 111 44
48 135 101 197 116 22 5 295 9 634 8 l595 -2 67 -32z m1796 -630 c18 -236 33
-434 32 -440 0 -10 -101 -13 -470 -13 -369 0 -470 3 -470 13 -1 6 14 204 32
440 l32 427 406 0 406 0 32 -427z m762 347 l0 -80 -160 0 -160 0 0 80 0 80
160 0 160 0 0 -80z m-2745 -345 l25 -24 0 -534 0 -535 -55 -7 c-75 -9 -183
-65 -235 -121 -23 -25 -56 -75 -73 -112 l-32 -67 -3 -248 -4 -247 -294 0 -295
0 -24 25 -25 24 0 911 0 911 25 24 24 25 471 0 471 0 24 -25z m3049 -632 c-2
-10 -67 -432 -144 -938 -136 -887 -142 -921 -166 -943 l-25 -22 -463 0 -462 0
35 72 36 72 0 496 0 496 -37 76 c-45 91 -103 147 -196 191 l-67 32 -285 5
-284 5 -18 120 c-10 66 -27 173 -37 238 l-18 117 1068 0 c1011 0 1067 -1 1063
-17z m-1510 -635 c55 -16 138 -99 154 -154 17 -58 17 -890 0 -948 -16 -55 -99
-138 -154 -154 -59 -17 -1529 -17 -1588 0 -55 16 -138 99 -154 154 -17 58 -17
890 0 948 15 51 99 137 148 153 52 16 1538 17 1594 1z"/>
<path d="M1785 1335 l-25 -24 0 -351 0 -351 25 -24 24 -25 671 0 671 0 24 25
25 24 0 351 0 351 -25 24 -24 25 -671 0 -671 0 -24 -25z m1255 -375 l0 -240
-560 0 -560 0 0 240 0 240 560 0 560 0 0 -240z"/>
</g>
</svg>
