<?xml version="1.0" standalone="no"?>
<!DOCTYPE svg PUBLIC "-//W3C//DTD SVG 20010904//EN"
 "http://www.w3.org/TR/2001/REC-SVG-20010904/DTD/svg10.dtd">
<svg version="1.0" xmlns="http://www.w3.org/2000/svg"
 width="512.000000pt" height="512.000000pt" viewBox="0 0 512.000000 512.000000"
 preserveAspectRatio="xMidYMid meet">

<g transform="translate(0.000000,512.000000) scale(0.100000,-0.100000)"
fill="#000000" stroke="none">
<path d="M2435 4807 c-68 -23 -108 -48 -151 -93 l-41 -44 -49 9 c-131 25 -280
-51 -343 -175 -106 -205 33 -455 261 -472 37 -2 69 -10 71 -16 2 -6 32 -90 66
-187 l63 -176 -26 -52 c-42 -81 -44 -146 -8 -297 26 -112 38 -175 57 -296 3
-16 3 -28 0 -28 -2 0 -34 22 -70 50 -81 61 -201 120 -320 156 -83 26 -103 28
-270 28 -157 1 -191 -2 -265 -22 -251 -67 -451 -221 -545 -417 -52 -109 -62
-148 -75 -298 -24 -279 -59 -324 -238 -314 -111 6 -213 -7 -279 -38 -119 -54
-228 -213 -240 -350 -7 -92 9 -167 60 -268 33 -67 59 -101 141 -182 56 -55
132 -121 171 -145 l69 -45 -214 -6 c-118 -3 -216 -6 -218 -7 -1 -1 -11 -17
-22 -34 -28 -46 -25 -82 9 -120 28 -31 33 -33 109 -36 l80 -4 4 -172 c3 -164
4 -173 32 -234 37 -80 122 -161 203 -194 l58 -23 2045 0 2045 0 58 23 c81 33
166 114 203 194 28 61 29 70 32 234 l4 172 80 4 c76 3 81 5 109 36 32 36 36
69 14 112 -18 34 -43 50 -80 50 -17 0 -25 4 -21 13 43 103 43 181 1 252 -30
53 -61 73 -150 100 l-70 22 -8 64 c-10 82 -41 150 -101 219 -189 219 -296 502
-296 779 0 127 11 202 50 341 35 123 38 211 11 280 l-17 45 72 70 c56 54 75
80 84 113 21 82 -17 180 -100 255 -70 63 -143 90 -246 90 -70 1 -89 -3 -140
-28 -86 -43 -119 -95 -119 -183 0 -37 4 -86 9 -109 8 -41 8 -41 -33 -63 -106
-53 -164 -152 -213 -357 -16 -70 -33 -140 -36 -154 -7 -26 -9 -25 -137 82
-236 196 -310 290 -464 589 -50 95 -102 186 -117 202 -16 16 -55 42 -88 59
l-61 30 -62 176 c-35 97 -63 181 -63 187 0 6 20 31 45 55 71 70 90 118 90 231
0 110 -21 166 -88 233 -78 78 -224 116 -322 84z m156 -210 c88 -59 77 -173
-22 -228 -57 -32 -84 -71 -82 -117 0 -20 31 -120 67 -221 36 -102 66 -190 66
-197 0 -15 -129 -59 -139 -48 -5 5 -32 79 -61 164 -100 289 -106 297 -234 285
-58 -6 -80 -4 -104 9 -59 31 -83 124 -46 181 30 46 68 58 153 51 98 -9 149 8
216 73 28 27 59 53 70 59 32 18 80 14 116 -11z m229 -975 c14 -11 62 -89 110
-183 161 -308 253 -424 490 -619 327 -267 512 -583 527 -900 12 -243 -58 -431
-218 -590 -132 -131 -281 -194 -464 -193 -121 0 -200 19 -312 73 -152 75 -294
212 -372 361 l-25 47 42 89 c137 296 132 629 -13 930 l-45 92 0 133 c0 147
-16 270 -57 446 -35 149 -36 192 -3 227 32 35 46 42 160 82 102 36 136 37 180
5z m1496 -68 c34 -16 64 -48 64 -69 0 -6 -24 -29 -52 -51 -52 -40 -54 -41 -88
-26 -19 7 -36 15 -38 17 -8 8 -31 128 -26 136 9 15 103 10 140 -7z m-136 -342
c45 -22 80 -75 80 -121 0 -20 -12 -74 -25 -120 -84 -285 -69 -617 41 -893 58
-148 112 -236 265 -434 40 -51 45 -96 17 -152 -14 -28 -36 -54 -57 -66 -43
-25 -115 -24 -150 1 -33 25 -133 143 -174 206 l-31 48 -1 192 c-1 175 -3 201
-28 290 -31 118 -107 279 -183 393 l-55 84 11 102 c20 186 71 381 112 434 42
52 116 68 178 36z m-2338 -207 c280 -59 513 -277 606 -565 36 -113 45 -182 40
-323 -7 -183 -49 -311 -150 -460 -234 -345 -749 -565 -1211 -517 -300 31 -577
149 -749 320 -98 98 -138 175 -138 268 0 34 6 77 14 96 16 38 69 101 100 119
13 7 89 14 191 17 196 7 243 21 313 93 79 82 115 187 132 394 12 139 21 177
63 257 77 145 259 266 458 305 70 14 258 12 331 -4z m755 -1785 c46 -46 83
-86 83 -87 0 -2 -143 -3 -317 -3 l-318 0 83 55 c95 62 165 119 242 199 l53 56
45 -68 c25 -37 83 -105 129 -152z m1522 155 c87 -106 168 -157 273 -170 46 -6
57 -11 62 -29 13 -48 24 -46 -309 -46 -173 0 -315 3 -315 6 0 4 25 32 56 63
54 55 130 159 155 214 7 15 15 27 19 27 4 0 30 -29 59 -65z m644 -62 c34 -9
66 -19 70 -23 13 -12 -23 -88 -54 -115 -28 -23 -98 -49 -107 -40 -2 2 -11 34
-18 71 l-14 67 27 28 c16 16 29 29 31 29 1 0 30 -8 65 -17z m-63 -526 c0 -128
-2 -147 -22 -187 -28 -54 -62 -80 -119 -91 -57 -11 -3941 -11 -3998 0 -54 11
-90 37 -118 87 -21 35 -23 52 -23 187 l0 147 2140 0 2140 0 0 -143z"/>
<path d="M3444 2440 c-33 -13 -64 -59 -64 -95 0 -24 13 -49 51 -96 140 -173
172 -357 94 -546 -14 -35 -25 -71 -25 -82 0 -54 49 -101 106 -101 88 0 172
220 161 420 -9 150 -63 292 -155 406 -71 87 -120 114 -168 94z"/>
<path d="M3359 1462 c-96 -48 -62 -184 47 -184 30 0 44 7 66 31 38 42 38 90 1
130 -36 38 -70 45 -114 23z"/>
<path d="M1610 2890 c-176 -27 -332 -133 -407 -275 -43 -83 -52 -121 -63 -265
-13 -169 -37 -218 -159 -329 -97 -90 -134 -146 -150 -233 -37 -202 112 -386
369 -455 102 -28 346 -25 465 6 416 107 705 444 705 823 0 131 -21 221 -82
347 -42 88 -62 116 -131 186 -90 90 -172 141 -277 173 -79 24 -196 34 -270 22z
m274 -239 c169 -82 286 -280 286 -486 0 -236 -147 -449 -397 -574 -112 -56
-202 -75 -348 -76 -149 0 -240 22 -313 75 -64 46 -84 84 -79 148 4 52 5 54
103 150 150 146 190 233 204 442 8 129 25 181 81 244 76 87 154 117 294 113
90 -3 107 -6 169 -36z"/>
<path d="M1641 2539 c-114 -33 -193 -139 -195 -260 -1 -163 134 -291 294 -276
142 13 250 130 250 272 0 177 -179 312 -349 264z m132 -221 c24 -28 21 -65 -8
-93 -29 -30 -64 -32 -93 -5 -35 33 -33 74 5 108 30 27 68 23 96 -10z"/>
</g>
</svg>
