<?xml version="1.0" standalone="no"?>
<!DOCTYPE svg PUBLIC "-//W3C//DTD SVG 20010904//EN"
 "http://www.w3.org/TR/2001/REC-SVG-20010904/DTD/svg10.dtd">
<svg version="1.0" xmlns="http://www.w3.org/2000/svg"
 width="512.000000pt" height="512.000000pt" viewBox="0 0 512.000000 512.000000"
 preserveAspectRatio="xMidYMid meet">

<g transform="translate(0.000000,512.000000) scale(0.100000,-0.100000)"
fill="#000000" stroke="none">
<path d="M35 5085 c-14 -13 -25 -33 -25 -44 0 -12 67 -190 150 -396 l150 -375
0 -2106 0 -2105 25 -24 24 -25 2201 0 2201 0 24 25 25 24 0 2105 0 2106 150
375 c83 206 150 384 150 396 0 11 -11 31 -25 44 l-24 25 -1673 0 c-1461 0
-1676 -2 -1695 -15 -14 -10 -60 -112 -138 -307 -64 -161 -118 -294 -119 -295
-1 -2 -55 130 -120 292 -79 198 -125 300 -139 310 -18 13 -101 15 -570 15
l-548 0 -24 -25z m1162 -408 c62 -155 115 -290 119 -299 6 -17 -19 -18 -437
-18 l-444 0 -112 283 c-62 155 -115 290 -119 300 -6 16 19 17 437 17 l444 0
112 -283z m3719 266 c-4 -10 -57 -145 -119 -300 l-112 -283 -1569 0 c-1489 0
-1568 1 -1562 18 4 9 57 144 119 299 l112 283 1569 0 c1489 0 1568 -1 1562
-17z m-3556 -2758 l0 -2025 -450 0 -450 0 0 2025 0 2025 450 0 450 0 0 -2025z
m3300 0 l0 -2025 -1575 0 -1575 0 0 2025 0 2025 1575 0 1575 0 0 -2025z"/>
<path d="M635 3885 l-25 -24 0 -1001 0 -1001 25 -24 24 -25 251 0 251 0 24 25
25 24 0 1001 0 1001 -25 24 -24 25 -251 0 -251 0 -24 -25z"/>
<path d="M635 1485 c-14 -13 -25 -36 -25 -50 0 -14 11 -37 25 -50 l24 -25 251
0 251 0 24 25 c14 13 25 36 25 50 0 14 -11 37 -25 50 l-24 25 -251 0 -251 0
-24 -25z"/>
<path d="M635 1035 c-14 -13 -25 -36 -25 -50 0 -14 11 -37 25 -50 l24 -25 251
0 251 0 24 25 c14 13 25 36 25 50 0 14 -11 37 -25 50 l-24 25 -251 0 -251 0
-24 -25z"/>
<path d="M635 585 c-14 -13 -25 -36 -25 -50 0 -14 11 -37 25 -50 l24 -25 251
0 251 0 24 25 c14 13 25 36 25 50 0 14 -11 37 -25 50 l-24 25 -251 0 -251 0
-24 -25z"/>
<path d="M1913 3890 c-31 -28 -35 -74 -31 -357 3 -247 3 -253 26 -275 l23 -23
1154 0 1154 0 23 23 c23 22 23 28 26 275 4 283 0 329 -31 357 -20 20 -39 20
-1172 20 -1133 0 -1152 0 -1172 -20z"/>
<path d="M1907 2912 c-24 -27 -22 -85 4 -108 20 -18 54 -19 1174 -19 1120 0
1154 1 1174 19 27 25 29 86 3 109 -17 16 -113 17 -1179 17 -1111 0 -1161 -1
-1176 -18z"/>
<path d="M3000 2504 c-8 -4 -55 -24 -104 -46 -73 -32 -109 -42 -207 -53 -183
-22 -228 -48 -337 -199 -35 -47 -74 -85 -129 -123 -43 -30 -94 -70 -113 -89
-34 -32 -40 -34 -106 -34 -125 0 -130 -14 -121 -379 6 -277 13 -317 78 -449
73 -148 227 -285 380 -334 l69 -22 0 -133 c0 -129 1 -135 25 -158 l24 -25 626
0 626 0 24 25 c24 23 25 29 25 158 l0 133 58 18 c158 49 317 186 390 336 66
135 73 174 79 451 9 365 4 379 -121 379 -66 0 -72 2 -106 34 -19 19 -70 58
-112 88 -56 39 -95 78 -141 139 -36 46 -75 94 -88 106 -44 40 -115 63 -237 78
-99 12 -131 20 -212 57 -83 37 -105 43 -175 45 -44 1 -87 0 -95 -3z m1130
-928 c0 -205 -2 -242 -20 -298 -53 -171 -204 -311 -382 -353 -94 -22 -1193
-22 -1287 0 -176 42 -329 183 -381 353 -18 56 -20 93 -20 298 l0 234 1045 0
1045 0 0 -234z m-520 -891 l0 -75 -525 0 -525 0 0 75 0 75 525 0 525 0 0 -75z"/>
<path d="M2987 1643 c-64 -22 -144 -94 -173 -158 -33 -70 -33 -180 0 -250 32
-69 109 -137 181 -160 142 -44 303 28 364 165 30 66 29 178 -3 245 -63 136
-225 206 -369 158z m163 -151 c50 -25 80 -75 80 -132 0 -57 -30 -107 -80 -132
-98 -50 -210 21 -210 132 0 81 67 150 145 150 17 0 46 -8 65 -18z"/>
</g>
</svg>
