<?xml version="1.0" standalone="no"?>
<!DOCTYPE svg PUBLIC "-//W3C//DTD SVG 20010904//EN"
 "http://www.w3.org/TR/2001/REC-SVG-20010904/DTD/svg10.dtd">
<svg version="1.0" xmlns="http://www.w3.org/2000/svg"
 width="512.000000pt" height="512.000000pt" viewBox="0 0 512.000000 512.000000"
 preserveAspectRatio="xMidYMid meet">

<g transform="translate(0.000000,512.000000) scale(0.100000,-0.100000)"
fill="#000000" stroke="none">
<path d="M1440 4947 c-49 -16 -133 -102 -148 -153 -9 -30 -12 -191 -12 -602 0
-316 -5 -605 -10 -663 -9 -89 -46 -296 -66 -366 -5 -19 1 -23 49 -37 96 -28
98 -28 114 29 13 51 46 232 58 318 l6 47 329 0 329 0 6 -47 c41 -302 101 -505
238 -798 36 -78 77 -175 92 -218 15 -42 33 -77 39 -77 32 0 136 43 136 56 0
24 -59 171 -133 329 -120 258 -191 508 -217 764 -5 58 -10 347 -10 663 0 404
-3 572 -12 600 -6 22 -31 62 -55 88 -69 77 -88 80 -417 79 -174 -1 -294 -5
-316 -12z m615 -172 c24 -23 25 -29 25 -160 l0 -135 -320 0 -320 0 0 40 0 40
240 0 240 0 0 80 0 80 -240 0 c-210 0 -240 2 -240 15 0 9 11 27 25 40 l24 25
271 0 271 0 24 -25z m25 -535 l0 -80 -320 0 -320 0 0 80 0 80 320 0 320 0 0
-80z m0 -400 l0 -160 -320 0 -320 0 0 160 0 160 320 0 320 0 0 -160z"/>
<path d="M3920 4947 c-19 -6 -58 -34 -86 -62 -59 -58 -80 -117 -71 -195 l6
-49 -37 -6 c-159 -26 -296 -99 -367 -197 -61 -83 -80 -143 -80 -258 0 -86 3
-101 32 -163 35 -73 113 -163 168 -193 l35 -19 0 -72 c0 -60 -3 -73 -16 -73
-27 0 -119 -101 -132 -146 -28 -95 -8 -168 65 -241 28 -29 59 -53 67 -53 13 0
16 -12 16 -60 0 -48 -3 -60 -16 -60 -27 0 -119 -101 -132 -146 -28 -95 -8
-168 65 -241 28 -29 59 -53 69 -53 15 0 16 -13 10 -147 -7 -148 -30 -419 -45
-525 l-7 -56 75 -11 c51 -8 77 -8 81 -1 13 21 43 336 56 583 l6 137 318 0 317
0 7 -142 c15 -315 55 -642 112 -922 13 -65 24 -123 24 -127 0 -5 -85 -9 -190
-9 l-190 0 0 -80 0 -79 285 -3 285 -3 32 -33 c28 -28 33 -39 33 -82 0 -43 -5
-54 -33 -82 l-32 -33 -325 -3 -325 -3 0 -79 0 -79 365 -3 365 -3 32 -33 c28
-28 33 -39 33 -82 0 -43 -5 -54 -33 -82 l-32 -33 -485 -3 -485 -3 0 -79 0 -80
400 0 400 0 0 -80 0 -80 -480 0 -480 0 0 -80 0 -80 534 0 c510 0 535 1 557 19
23 18 24 27 29 161 l5 143 47 15 c189 60 247 309 106 456 l-47 49 22 41 c32
61 31 174 -3 240 -35 68 -101 123 -170 143 l-57 15 -31 167 c-62 328 -94 589
-108 904 -6 135 -5 147 10 147 29 0 120 100 134 146 28 95 8 168 -65 242 -28
28 -59 52 -67 52 -13 0 -16 12 -16 60 0 48 3 60 16 60 8 0 39 24 67 53 73 73
93 146 65 241 -13 45 -105 146 -132 146 -13 0 -16 13 -16 73 0 72 0 72 34 91
52 28 121 101 154 164 102 196 44 429 -139 551 -58 39 -175 82 -261 96 l-37 6
6 49 c8 71 -12 132 -64 190 -65 72 -158 97 -253 67z m135 -172 c16 -15 25 -36
25 -55 0 -19 -9 -40 -25 -55 -15 -16 -36 -25 -55 -25 -19 0 -40 9 -55 25 -16
15 -25 36 -25 55 0 19 9 40 25 55 15 16 36 25 55 25 19 0 40 -9 55 -25z m227
-306 c82 -17 172 -64 212 -110 92 -108 86 -260 -14 -359 -76 -77 -95 -80 -480
-80 -385 0 -404 3 -480 80 -102 101 -106 254 -10 363 41 46 106 81 195 103 65
16 503 18 577 3z m38 -749 l0 -40 -320 0 -320 0 0 40 0 40 320 0 320 0 0 -40z
m135 -225 c16 -15 25 -36 25 -55 0 -19 -9 -40 -25 -55 l-24 -25 -431 0 -431 0
-24 25 c-16 15 -25 36 -25 55 0 19 9 40 25 55 l24 25 431 0 431 0 24 -25z
m-135 -335 l0 -40 -320 0 -320 0 0 40 0 40 320 0 320 0 0 -40z m135 -225 c16
-15 25 -36 25 -55 0 -19 -9 -40 -25 -55 l-24 -25 -431 0 -431 0 -24 25 c-16
15 -25 36 -25 55 0 19 9 40 25 55 l24 25 431 0 431 0 24 -25z"/>
<path d="M426 2944 c-70 -22 -149 -103 -170 -174 -20 -68 -20 -112 0 -180 21
-72 101 -153 170 -173 45 -13 49 -17 52 -47 7 -65 -25 -119 -140 -238 -83 -86
-117 -129 -141 -180 l-32 -67 0 -711 0 -710 37 -76 c45 -91 103 -147 196 -191
l67 -32 576 0 575 0 76 38 c73 36 168 121 168 151 0 6 -29 27 -64 47 l-64 37
-49 -47 c-28 -27 -65 -51 -89 -59 -58 -17 -1049 -17 -1108 0 -55 16 -138 99
-154 154 -24 82 -88 74 628 74 l640 0 0 80 0 80 -640 0 -640 0 0 480 0 480
680 0 680 0 0 80 0 80 -675 0 c-465 0 -675 3 -675 10 0 29 42 85 137 182 121
125 160 194 170 301 l6 67 397 0 397 0 6 -67 c10 -107 49 -176 170 -301 100
-103 137 -153 137 -187 0 -18 13 -19 98 -4 l64 11 -7 36 c-13 69 -57 135 -164
246 -114 117 -146 171 -139 236 3 30 7 34 52 47 99 29 186 152 186 262 0 116
-85 234 -190 265 -78 23 -1149 23 -1224 0z m1216 -182 c28 -28 33 -39 33 -82
0 -43 -5 -54 -33 -82 l-32 -33 -570 0 -570 0 -32 33 c-28 28 -33 39 -33 81 0
52 26 93 70 112 11 4 271 7 577 6 l558 -2 32 -33z"/>
<path d="M2540 2191 c-80 -21 -164 -59 -227 -102 -26 -18 -152 -135 -278 -261
l-231 -228 -117 0 c-112 0 -119 -1 -142 -25 -25 -24 -25 -27 -25 -195 0 -248
33 -379 135 -535 53 -81 195 -222 278 -275 l67 -43 0 -159 c0 -155 1 -159 25
-183 l24 -25 671 0 671 0 24 25 c24 24 25 28 25 183 l0 158 84 57 c146 99 267
244 332 397 50 115 64 204 64 400 0 168 0 171 -25 195 -23 24 -30 25 -142 25
l-117 0 -231 228 c-126 126 -252 243 -278 261 -65 44 -158 85 -238 105 -89 22
-263 20 -349 -3z m325 -156 c117 -31 168 -68 360 -257 l180 -178 -685 0 -685
0 180 178 c189 187 244 226 356 256 72 20 220 20 294 1z m895 -702 c0 -137
-19 -227 -69 -328 -96 -193 -294 -351 -526 -417 -77 -22 -94 -23 -445 -23
-351 0 -368 1 -445 23 -225 64 -423 218 -520 403 -53 101 -75 200 -75 336 l0
113 1040 0 1040 0 0 -107z m-1503 -905 c84 -22 107 -23 463 -23 356 0 379 1
463 23 49 12 90 22 93 22 2 0 4 -29 4 -65 l0 -65 -560 0 -560 0 0 65 c0 36 2
65 4 65 3 0 44 -10 93 -22z"/>
<path d="M885 1590 c-208 -33 -379 -132 -450 -262 -26 -45 -30 -64 -30 -128 0
-64 4 -83 30 -128 62 -113 194 -200 370 -244 129 -32 353 -32 474 0 47 13 90
26 97 30 16 10 -37 148 -57 145 -8 0 -43 -9 -79 -19 -89 -26 -307 -26 -400 -1
-82 22 -163 59 -203 93 -41 34 -77 92 -77 124 0 32 36 90 77 124 40 34 121 71
203 93 93 25 311 25 400 -1 36 -10 71 -19 79 -19 20 -3 73 135 57 145 -6 4
-48 16 -91 28 -92 24 -303 35 -400 20z"/>
</g>
</svg>
